 <svg  version="1.0" xmlns="http://www.w3.org/2000/svg"  width="750.000000pt" height="328.000000pt" viewBox="0 0 300.000000 328.000000"  preserveAspectRatio="xMidYMid meet">  <g transform="translate(0.000000,328.000000) scale(0.100000,-0.100000)" fill="#475fbd" stroke="none"> <path d="M1118 2905 c-429 -72 -761 -396 -848 -825 -84 -419 120 -868 493 -1087 342 -200 763 -186 1105 38 79 52 195 164 256 249 66 91 131 229 163 346 24 88 27 115 27 249 -1 216 -40 364 -143 539 -213 363 -638 561 -1053 491z m224 -682 l3 -288 288 -3 288 -2 -3 -63 -3 -62 -352 -3 -353 -2 0 355 0 355 65 0 65 0 2 -287z m-384 -210 l2 -463 460 0 460 0 0 -65 0 -65 -530 0 -530 0 0 530 0 531 68 -3 67 -3 3 -462z"/> </g> </svg> 